PathFileType	4	(X/Y/Z)	1H_nor_fast_left.trc
DataRate	CameraRate	NumFrames	NumMarkers	Units	OrigDataRate	OrigDataStartFrame	OrigNumFrames
250.00	250.00	18	18	mm	250.00	1906	7622
Frame#	Time	c7	r_should	r_elb_m	clavicle	r_upa	r_wri_m	l_upa	l_elb_l	l_low	l_wri_l	l_met	l_elb_m	r_elb_l	l_should	r_low	r_wri_l	r_met	l_wri_m
	X1	Y1	Z1	X2	Y2	Z2	X3	Y3	Z3	X4	Y4	Z4	X5	Y5	Z5	X6	Y6	Z6	X7	Y7	Z7	X8	Y8	Z8	X9	Y9	Z9	X10	Y10	Z10	X11	Y11	Z11	X12	Y12	Z12	X13	Y13	Z13	X14	Y14	Z14	X15	Y15	Z15	X16	Y16	Z16	X17	Y17	Z17	X18	Y18	Z18
1906	7.62000	1097.05322	1427.21045	117.50601	1140.83984	1356.66418	286.47452	1082.75085	1020.83661	294.39200	1202.16797	1287.73669	117.32896	1148.93066	1139.69092	334.35181	1115.37000	791.18225	374.24335	1179.29858	1206.29834	-137.98647	1205.79529	1147.34973	-158.06334	1172.58386	1209.78992	-139.75746	1267.85181	1215.62549	22.51901	1332.82544	1228.18469	76.63367	1137.79382	1094.29321	-98.59621	1155.54150	1047.41895	352.18292	1117.29553	1388.47888	-38.89221	1168.96692	913.12299	345.93094	1178.72778	786.86475	332.50726	1193.66602	725.94727	378.55206	1272.57019	1144.99951	46.94380
1907	7.62400	1096.98926	1427.19531	117.56367	1140.79907	1356.61926	286.49121	1082.77612	1020.78796	294.35007	1201.99646	1287.80750	117.36967	1148.92517	1139.66187	334.34979	1115.36914	791.13104	374.21814	1175.99670	1206.35815	-137.52681	1205.89258	1147.20166	-157.72629	nan	nan	nan	1267.56653	1216.01611	22.72781	1332.51477	1228.85071	76.86821	1137.84192	1094.17090	-98.18021	1155.55859	1047.35828	352.19058	1117.30701	1388.44751	-38.91093	1168.96936	913.07507	345.93390	1178.74170	786.80389	332.52411	1193.66309	725.89478	378.57382	1273.62341	1145.42188	47.35722
1908	7.62800	1096.92554	1427.18347	117.61767	1140.75598	1356.57971	286.50876	1082.79688	1020.73645	294.31516	1201.83582	1287.87952	117.41465	nan	nan	nan	1115.37024	791.08374	374.19260	1174.84241	1206.62122	-137.55814	1205.95264	1147.03870	-157.40697	1251.58154	1163.52515	-70.30629	1267.27698	1216.33533	22.94848	1332.21179	1229.41333	77.07914	1137.87549	1094.02820	-97.74451	1155.55908	1047.29822	352.17471	1117.31799	1388.40344	-38.93635	1168.98340	913.02740	345.93698	1178.82812	786.58392	332.29773	1193.66296	725.84198	378.59320	1275.02454	1145.71509	47.76889
1909	7.63200	1096.85608	1427.17334	117.66063	1140.71033	1356.53381	286.53943	1082.82092	1020.67438	294.26978	1201.68640	1287.94580	117.46519	1148.91895	1139.56433	334.33685	1115.37207	791.03705	374.16360	1173.80615	1207.33179	-138.05714	1205.99170	1146.85474	-157.08051	1251.46484	1163.56848	-69.93894	1266.96021	1216.56616	23.20905	1331.92297	1229.88293	77.28659	1137.89966	1093.87463	-97.31062	1155.05322	1047.69519	352.04242	1117.32178	1388.35413	-38.96567	1169.00220	912.96997	345.93408	1178.54089	786.84985	331.62372	1193.67236	725.79126	378.60178	1274.03589	1146.07825	48.04519
1910	7.63600	1096.78638	1427.16785	117.70807	1140.65906	1356.48315	286.56030	1082.84448	1020.61548	294.22180	1201.52502	1287.99866	117.50046	nan	nan	nan	1115.38306	790.98230	374.12051	1173.98242	1206.93213	-137.67230	1206.02393	1146.65027	-156.76108	1251.35193	1163.57800	-69.61874	1266.64624	1216.69910	23.49985	1331.64917	1230.25317	77.48412	1137.90173	1093.71655	-96.90334	1153.90955	1048.63489	351.76660	1117.32288	1388.29065	-38.99526	1169.02112	912.90509	345.91348	1178.05139	787.56500	331.30725	1193.68738	725.73364	378.60333	1275.92102	1146.22083	48.42188
1911	7.64000	1096.71021	1427.15930	117.74695	1140.60095	1356.44312	286.58267	1082.86121	1020.55469	294.17581	1201.38306	1288.05798	117.56330	1148.90344	1139.51477	334.30704	1115.39026	790.93707	374.08173	1174.44714	1206.23804	-137.05531	1206.04419	1146.43018	-156.42853	1251.23120	1163.55042	-69.33006	1266.36084	1216.74255	23.79959	1331.38074	1230.52332	77.67286	1137.84949	1093.56091	-96.51517	1153.62805	1048.84558	351.66888	1117.31787	1388.22461	-39.01829	1169.04993	912.84436	345.89069	1178.42383	787.03485	331.37524	1193.70312	725.67639	378.60794	1276.32605	1146.31848	48.79035
1912	7.64400	1096.63074	1427.15393	117.78614	1140.53906	1356.40222	286.60941	1082.89612	1020.49530	294.12036	1201.27332	1288.12366	117.64863	1149.54272	1139.07324	334.63986	1115.40076	790.88977	374.03857	1173.75476	1206.68909	-137.42551	1205.70483	1146.53613	-156.39421	1251.09338	1163.45654	-69.01286	1266.07690	1216.72681	24.09136	1331.11438	1230.69885	77.85460	1137.74036	1093.40674	-96.16496	1153.56958	1048.88147	351.62460	1117.30530	1388.15356	-39.04216	1169.08691	912.78217	345.86884	1177.64856	788.25238	331.08914	1193.72266	725.62683	378.60974	1275.16223	1146.39111	49.11272
1913	7.64800	1096.54846	1427.14697	117.82869	1140.47229	1356.35828	286.63242	1082.92773	1020.43042	294.06525	1201.17932	1288.17468	117.72800	1150.98120	1138.09473	335.39923	1115.42285	790.83649	373.99417	1173.57324	1206.60974	-137.36516	1204.84741	1147.22546	-156.79532	1250.91577	1163.28833	-68.67437	1265.79688	1216.65088	24.39972	1330.85168	1230.77515	78.03251	1137.59436	1093.24829	-95.84472	1153.56750	1048.85437	351.59344	1117.29004	1388.07983	-39.06842	1169.12000	912.72644	345.83981	1177.49268	788.52429	331.00009	1193.74744	725.57428	378.60052	1272.47400	1146.44287	49.31387
1914	7.65200	1096.46301	1427.14026	117.86703	1140.40222	1356.31580	286.65680	1082.95923	1020.37451	294.00439	1201.10144	1288.21985	117.81171	1151.32861	1137.81873	335.57004	1115.45386	790.78497	373.94666	1173.90869	1205.98914	-136.86301	1204.82825	1147.03442	-156.39105	1250.71265	1163.05908	-68.33379	1265.52649	1216.51941	24.70247	1330.59778	1230.75244	78.20793	1137.41077	1093.06934	-95.56650	1153.58606	1048.81775	351.57620	1117.26953	1388.00232	-39.09771	1169.15393	912.66992	345.81116	1177.94800	787.86401	331.12848	1193.77466	725.52722	378.59671	1271.73596	1146.34412	49.50904
1915	7.65600	1096.37549	1427.13049	117.90331	1140.32874	1356.27942	286.68484	1082.99231	1020.32782	293.94736	1201.04480	1288.26453	117.91528	1151.40942	1137.72400	335.60495	1115.49097	790.72900	373.89362	1174.35120	1205.23352	-136.25658	1205.52441	1145.76196	-155.40488	1250.50073	1162.78455	-68.00595	1265.25867	1216.34192	24.97801	1330.35461	1230.63586	78.37978	1137.19324	1092.89758	-95.32329	1153.60132	1048.76917	351.54489	1117.24670	1387.91785	-39.13007	1169.18909	912.62427	345.78394	1179.01648	786.28662	331.46194	1193.80286	725.48151	378.58673	1271.44910	1146.16357	49.68736
1916	7.66000	1096.28223	1427.11768	117.93900	1140.25171	1356.25171	286.70920	1083.02393	1020.28369	293.88885	1201.01562	1288.30371	118.05029	1150.77441	1138.09521	335.26556	1115.52734	790.67804	373.83365	1173.58337	1205.67542	-136.66623	1205.57727	1145.23401	-154.95381	1250.31189	1162.49402	-67.72322	1264.99414	1216.10095	25.24516	1330.11841	1230.42651	78.55212	1136.93481	1092.73340	-95.11896	1153.61475	1048.71704	351.50461	1117.22534	1387.83142	-39.16879	1169.22729	912.59149	345.76355	1178.87183	786.55682	331.36935	1193.83630	725.43860	378.56900	1270.80896	1146.21765	50.65165
1917	7.66400	1096.18384	1427.11121	117.96735	1140.17664	1356.23035	286.72659	1083.04907	1020.23981	293.82947	1201.01660	1288.33911	118.20887	1149.30859	1138.99048	334.47607	1115.55908	790.63550	373.76691	1173.30457	1205.59351	-136.64038	1205.44458	1144.88574	-154.67844	1250.13892	1162.16711	-67.49494	1264.72852	1215.77295	25.54021	1329.89050	1230.13269	78.73018	1136.63989	1092.56714	-94.93435	1153.62097	1048.66638	351.46863	1117.19910	1387.74182	-39.20863	1169.26477	912.56238	345.73944	1177.95483	787.95636	331.01788	1193.86694	725.39929	378.54428	1269.57007	1146.54700	52.61356
1918	7.66800	1096.07996	1427.10291	117.98663	1140.09875	1356.21924	286.74738	1083.06140	1020.20038	293.76883	1201.03625	1288.35474	118.37811	1148.92419	1139.18982	334.24805	1115.59534	790.59467	373.69513	1173.52209	1204.96594	-136.17531	1204.91748	1144.88916	-154.76633	1249.93506	1161.78271	-67.27852	1264.47571	1215.37927	25.84080	1329.66772	1229.75464	78.90576	1136.31860	1092.40137	-94.75671	1153.63147	1048.63220	351.43280	1117.17102	1387.65527	-39.26274	1169.29553	912.53802	345.70367	1177.77014	788.27765	330.90735	1193.89490	725.35791	378.51682	1269.04114	1146.30042	53.27370
1919	7.67200	1095.97412	1427.09607	118.00185	1140.01257	1356.20374	286.75803	1083.07471	1020.15936	293.70218	1201.04858	1288.37122	118.55348	1148.80774	1139.22156	334.16620	1115.63611	790.53961	373.61343	1173.84692	1204.20264	-135.62697	1203.94617	1145.31201	-155.25592	1249.68213	1161.34290	-67.06467	1264.23279	1214.94678	26.10284	1329.44531	1229.29590	79.07687	1135.96460	1092.24451	-94.59008	1153.64929	1048.60010	351.39731	1117.14307	1387.56653	-39.32336	1169.32654	912.50739	345.66748	1178.16467	787.81714	331.24243	1193.91772	725.32227	378.48071	1268.70032	1145.82104	53.57695
1920	7.67600	1095.86328	1427.09143	118.01270	1139.92822	1356.17883	286.76129	1083.08899	1020.11670	293.64084	1201.08423	1288.39807	118.72725	1148.76038	1139.21924	334.12451	1115.67236	790.48682	373.52994	1172.96814	1204.63171	-136.10706	1203.49084	1145.18042	-155.26303	1249.40295	1160.88318	-66.87040	1263.99438	1214.43188	26.35644	1329.22803	1228.74866	79.24718	1135.57483	1092.08472	-94.46729	1153.65649	1048.57202	351.35339	1117.11438	1387.46301	-39.38557	1169.35669	912.47723	345.62708	1179.16797	786.49249	331.84714	1193.94995	725.28833	378.43848	1268.41431	1145.23694	53.75262
1921	7.68000	1095.75208	1427.08777	118.02258	1139.83984	1356.16321	286.77744	1083.10608	1020.07422	293.57822	1201.14062	1288.41174	118.88322	1148.73291	1139.20386	334.09009	1115.70886	790.42975	373.44272	1172.58020	1204.54077	-136.16927	1203.14771	1144.89917	-155.14874	1249.09900	1160.38770	-66.68827	1263.77185	1213.84253	26.58877	1329.01917	1228.11182	79.42744	1134.66992	1091.89124	-94.34246	1153.65979	1048.54773	351.30865	1117.07764	1387.35107	-39.44073	1169.38708	912.45972	345.58289	1179.51941	785.97662	331.72784	1193.98474	725.25525	378.39062	1268.23535	1144.64185	53.87339
1922	7.68400	1095.63965	1427.08215	118.03488	1139.74414	1356.14929	286.79498	1083.12268	1020.03503	293.51074	1201.36255	1288.59180	118.01507	1148.70691	1139.17236	334.04620	1115.74438	790.37439	373.35318	1172.30029	1204.31824	-136.13989	1202.80457	1144.56934	-155.00829	1248.79919	1159.87231	-66.52674	1263.55811	1213.18909	26.83252	1328.82458	1227.39673	79.59734	1133.11450	1091.64685	-94.21937	1153.65942	1048.52039	351.26019	1117.03992	1387.22571	-39.49559	1169.42139	912.44135	345.53964	1179.54871	786.14734	332.14001	1194.02832	725.21509	378.33505	1268.07996	1143.97620	53.97836
1923	7.68800	1095.52356	1427.07214	118.04503	1139.64795	1356.13037	286.80835	1083.12842	1020.00226	293.44635	1201.80371	1289.00549	115.91177	1148.68909	1139.13770	334.01135	1115.79065	790.32855	373.26971	1172.02258	1204.05493	-136.09309	1202.43579	1144.22253	-154.87027	1248.52637	1159.34131	-66.40762	1263.33777	1212.45630	27.11143	1328.64758	1226.59814	79.75848	1132.40076	1091.44177	-94.14841	1153.66138	1048.49109	351.22067	1116.99292	1387.09875	-39.55483	1169.45886	912.41290	345.49075	1179.66003	786.02625	331.96301	1194.07861	725.17633	378.27798	1267.87695	1143.21313	54.07904
